<svg width="57" height="75" viewBox="0 0 57 75" fill="none" xmlns="http://www.w3.org/2000/svg">
<path d="M54.9643 12.2168H36.6429C35.0627 12.2168 33.5042 12.5847 32.0909 13.2914C30.6775 13.9981 29.4481 15.0241 28.5 16.2883C27.5519 15.0241 26.3225 13.9981 24.9091 13.2914C23.4958 12.5847 21.9373 12.2168 20.3571 12.2168H2.03571C1.49581 12.2168 0.978017 12.4313 0.596247 12.8131C0.214476 13.1948 0 13.7126 0 14.2525V44.7883C0 45.3282 0.214476 45.846 0.596247 46.2277C0.978017 46.6095 1.49581 46.824 2.03571 46.824H20.3571C21.9769 46.824 23.5302 47.4674 24.6755 48.6127C25.8209 49.758 26.4643 51.3114 26.4643 52.9311C26.4643 53.471 26.6788 53.9888 27.0605 54.3706C27.4423 54.7523 27.9601 54.9668 28.5 54.9668C29.0399 54.9668 29.5577 54.7523 29.9395 54.3706C30.3212 53.9888 30.5357 53.471 30.5357 52.9311C30.5357 51.3114 31.1791 49.758 32.3245 48.6127C33.4698 47.4674 35.0231 46.824 36.6429 46.824H54.9643C55.5042 46.824 56.022 46.6095 56.4038 46.2277C56.7855 45.846 57 45.3282 57 44.7883V14.2525C57 13.7126 56.7855 13.1948 56.4038 12.8131C56.022 12.4313 55.5042 12.2168 54.9643 12.2168ZM20.3571 42.7525H4.07143V16.2883H20.3571C21.9769 16.2883 23.5302 16.9317 24.6755 18.077C25.8209 19.2223 26.4643 20.7757 26.4643 22.3954V44.7883C24.7041 43.4637 22.5601 42.749 20.3571 42.7525ZM52.9286 42.7525H36.6429C34.44 42.749 32.2959 43.4637 30.5357 44.7883V22.3954C30.5357 20.7757 31.1791 19.2223 32.3245 18.077C33.4698 16.9317 35.0231 16.2883 36.6429 16.2883H52.9286V42.7525ZM18.7286 4.88571C19.8663 3.36875 21.3416 2.13751 23.0376 1.2895C24.7336 0.441487 26.6038 0 28.5 0C30.3962 0 32.2664 0.441487 33.9624 1.2895C35.6584 2.13751 37.1337 3.36875 38.2714 4.88571C38.596 5.3173 38.7359 5.86016 38.6603 6.39488C38.5846 6.9296 38.2997 7.41237 37.8681 7.73699C37.4365 8.0616 36.8937 8.20148 36.3589 8.12584C35.8242 8.0502 35.3414 7.76525 35.0168 7.33366C34.2584 6.32138 33.2747 5.49969 32.1435 4.93374C31.0123 4.36778 29.7649 4.07312 28.5 4.07312C27.2351 4.07312 25.9877 4.36778 24.8565 4.93374C23.7253 5.49969 22.7416 6.32138 21.9832 7.33366C21.8224 7.54736 21.6212 7.72731 21.3909 7.86323C21.1606 7.99915 20.9058 8.08839 20.6411 8.12584C20.3763 8.16329 20.1068 8.14823 19.8478 8.08151C19.5889 8.01479 19.3456 7.89772 19.1319 7.73699C18.9182 7.57625 18.7383 7.375 18.6023 7.14472C18.4664 6.91444 18.3772 6.65965 18.3397 6.39488C18.3023 6.13012 18.3173 5.86057 18.3841 5.60162C18.4508 5.34268 18.5678 5.09941 18.7286 4.88571Z" fill="#9137BB"/>
<path fill-rule="evenodd" clip-rule="evenodd" d="M17.981 50.2284C20.2218 50.4151 21.887 52.383 21.7002 54.6239L20.3431 70.9096C20.1563 73.1504 18.1884 74.8156 15.9476 74.6288C13.7068 74.4421 12.0416 72.4742 12.2283 70.2333L13.5855 53.9476C13.7722 51.7068 15.7401 50.0416 17.981 50.2284Z" fill="#9137BB"/>
<path fill-rule="evenodd" clip-rule="evenodd" d="M37.6619 50.2284C35.4211 50.4151 33.7559 52.383 33.9426 54.6239L35.2998 70.9096C35.4865 73.1504 37.4544 74.8156 39.6953 74.6288C41.9361 74.4421 43.6012 72.4742 43.4145 70.2333L42.0574 53.9476C41.8706 51.7068 39.9027 50.0416 37.6619 50.2284Z" fill="#9137BB"/>
<path d="M16.9542 28.6006C16.9542 29.4327 16.6557 30.1262 16.0588 30.6809C15.4718 31.2261 14.5714 31.4987 13.3577 31.4987H11.358V35.6738H10V25.6738H13.3577C14.5317 25.6738 15.4221 25.9464 16.0289 26.4916C16.6458 27.0368 16.9542 27.7398 16.9542 28.6006ZM13.3577 30.4227C14.1138 30.4227 14.6709 30.2649 15.0291 29.9492C15.3872 29.6336 15.5663 29.184 15.5663 28.6006C15.5663 27.3667 14.8301 26.7498 13.3577 26.7498H11.358V30.4227H13.3577Z" fill="#9137BB"/>
<path d="M20 25.6738V35.6738H18.642V25.6738H20Z" fill="#9137BB"/>
<path d="M41.3263 28.6107C41.3263 29.4417 41.0118 30.1341 40.383 30.6881C39.7646 31.2325 38.816 31.5047 37.5374 31.5047H35.4307V35.6738H34V25.6881H37.5374C38.7741 25.6881 39.7122 25.9603 40.3515 26.5047C41.0014 27.0491 41.3263 27.7511 41.3263 28.6107ZM37.5374 30.4302C38.3339 30.4302 38.9209 30.2726 39.2982 29.9574C39.6755 29.6422 39.8642 29.1933 39.8642 28.6107C39.8642 27.3786 39.0886 26.7626 37.5374 26.7626H35.4307V30.4302H37.5374Z" fill="#9137BB"/>
<path d="M44.5351 26.7483V30.0864H48.5284V31.1609H44.5351V34.5993H49V35.6738H43.1044V25.6738H49V26.7483H44.5351Z" fill="#9137BB"/>
</svg>
